<svg width="60" height="60" viewBox="0 0 60 60" fill="none" xmlns="http://www.w3.org/2000/svg">
<g clip-path="url(#clip0_230_426)">
<path d="M30 56.25C23.0381 56.25 16.3613 53.4844 11.4384 48.5616C6.51562 43.6387 3.75 36.9619 3.75 30C3.75 23.0381 6.51562 16.3613 11.4384 11.4384C16.3613 6.51562 23.0381 3.75 30 3.75C36.9619 3.75 43.6387 6.51562 48.5616 11.4384C53.4844 16.3613 56.25 23.0381 56.25 30C56.25 36.9619 53.4844 43.6387 48.5616 48.5616C43.6387 53.4844 36.9619 56.25 30 56.25ZM30 60C37.9565 60 45.5871 56.8393 51.2132 51.2132C56.8393 45.5871 60 37.9565 60 30C60 22.0435 56.8393 14.4129 51.2132 8.7868C45.5871 3.16071 37.9565 0 30 0C22.0435 0 14.4129 3.16071 8.7868 8.7868C3.16071 14.4129 0 22.0435 0 30C0 37.9565 3.16071 45.5871 8.7868 51.2132C14.4129 56.8393 22.0435 60 30 60Z" fill="#FF3B30"/>
<path d="M26.2575 41.25C26.2575 40.7576 26.3545 40.2699 26.543 39.8149C26.7314 39.36 27.0076 38.9466 27.3559 38.5984C27.7041 38.2501 28.1175 37.9739 28.5724 37.7855C29.0274 37.597 29.5151 37.5 30.0075 37.5C30.5 37.5 30.9876 37.597 31.4426 37.7855C31.8975 37.9739 32.3109 38.2501 32.6592 38.5984C33.0074 38.9466 33.2836 39.36 33.4721 39.8149C33.6605 40.2699 33.7575 40.7576 33.7575 41.25C33.7575 42.2446 33.3624 43.1984 32.6592 43.9017C31.9559 44.6049 31.0021 45 30.0075 45C29.0129 45 28.0591 44.6049 27.3559 43.9017C26.6526 43.1984 26.2575 42.2446 26.2575 41.25ZM26.625 18.7313C26.5751 18.2582 26.6252 17.7799 26.772 17.3274C26.9189 16.8749 27.1592 16.4583 27.4775 16.1047C27.7957 15.7511 28.1847 15.4684 28.6193 15.2748C29.0539 15.0813 29.5243 14.9813 30 14.9813C30.4757 14.9813 30.9461 15.0813 31.3807 15.2748C31.8153 15.4684 32.2043 15.7511 32.5226 16.1047C32.8408 16.4583 33.0812 16.8749 33.228 17.3274C33.3749 17.7799 33.4249 18.2582 33.375 18.7313L32.0625 31.8825C32.0184 32.3992 31.782 32.8804 31.4001 33.2311C31.0182 33.5819 30.5185 33.7765 30 33.7765C29.4815 33.7765 28.9818 33.5819 28.5999 33.2311C28.218 32.8804 27.9816 32.3992 27.9375 31.8825L26.625 18.7313Z" fill="#FF3B30"/>
</g>
<defs>
<clipPath id="clip0_230_426">
<rect width="60" height="60" fill="white"/>
</clipPath>
</defs>
</svg>
