<svg width="60" height="60" viewBox="0 0 60 60" fill="none" xmlns="http://www.w3.org/2000/svg">
<g clip-path="url(#clip0_230_102)">
<path d="M30 56.25C23.0381 56.25 16.3613 53.4844 11.4384 48.5616C6.51562 43.6387 3.75 36.9619 3.75 30C3.75 23.0381 6.51562 16.3613 11.4384 11.4384C16.3613 6.51562 23.0381 3.75 30 3.75C36.9619 3.75 43.6387 6.51562 48.5616 11.4384C53.4844 16.3613 56.25 23.0381 56.25 30C56.25 36.9619 53.4844 43.6387 48.5616 48.5616C43.6387 53.4844 36.9619 56.25 30 56.25ZM30 60C37.9565 60 45.5871 56.8393 51.2132 51.2132C56.8393 45.5871 60 37.9565 60 30C60 22.0435 56.8393 14.4129 51.2132 8.7868C45.5871 3.16071 37.9565 0 30 0C22.0435 0 14.4129 3.16071 8.7868 8.7868C3.16071 14.4129 0 22.0435 0 30C0 37.9565 3.16071 45.5871 8.7868 51.2132C14.4129 56.8393 22.0435 60 30 60Z" fill="#47E1B6"/>
<path d="M41.1375 18.6375L41.0625 18.72L28.0387 35.3138L20.19 27.4613C19.6568 26.9645 18.9517 26.694 18.223 26.7069C17.4944 26.7197 16.7992 27.0149 16.2839 27.5302C15.7686 28.0455 15.4734 28.7407 15.4606 29.4693C15.4477 30.1979 15.7182 30.9031 16.215 31.4363L26.1375 41.3625C26.4048 41.6293 26.7231 41.8396 27.0734 41.9807C27.4238 42.1218 27.7989 42.191 28.1765 42.184C28.5542 42.177 28.9265 42.094 29.2713 41.94C29.6162 41.786 29.9265 41.5641 30.1837 41.2875L45.1537 22.575C45.6635 22.04 45.9422 21.3259 45.9296 20.587C45.917 19.8482 45.6141 19.1439 45.0864 18.6266C44.5588 18.1093 43.8487 17.8204 43.1097 17.8225C42.3708 17.8245 41.6623 18.1173 41.1375 18.6375Z" fill="#47E1B6"/>
</g>
<defs>
<clipPath id="clip0_230_102">
<rect width="60" height="60" fill="white"/>
</clipPath>
</defs>
</svg>
